# xmcd CD database file
#
# Track frame offsets:
#	150
#	25160
#	35925
#
# Disc length: 890 seconds
#
# Revision: 0
# Processed by: cddbd v1.5.1PL0 Copyright (c) Steve Scherf et al.
# Submitted via: CDex 1.51
#
DISCID=21037803
DTITLE=GOING UNDER GROUND - きらり/トゥモロウズソング
DYEAR=2005
DGENRE=JPop
TTITLE0=きらり
TTITLE1=トゥモロウズ ソング
TTITLE2=Tomorrow's Song SUGIURUMN OVER NIGHT REMIX
EXTD=YEAR: 2005
EXTT0=
EXTT1=
EXTT2=
PLAYORDER=
